<?xml version="1.0" standalone="no"?>
<!DOCTYPE svg PUBLIC "-//W3C//DTD SVG 20010904//EN"
 "http://www.w3.org/TR/2001/REC-SVG-20010904/DTD/svg10.dtd">
<svg version="1.0" xmlns="http://www.w3.org/2000/svg"
 width="162.000000pt" height="101.000000pt" viewBox="0 0 162.000000 101.000000"
 preserveAspectRatio="xMidYMid meet">

<g transform="translate(0.000000,101.000000) scale(0.100000,-0.100000)"
fill="#000000" stroke="none">
<path d="M60 890 c-11 -7 -7 -10 18 -10 17 0 32 -1 32 -3 0 -2 -11 -37 -25
-77 -26 -78 -30 -100 -17 -100 5 0 22 39 39 88 29 83 32 87 62 90 17 2 31 7
31 13 0 12 -121 11 -140 -1z"/>
<path d="M172 817 c-20 -24 -30 -62 -21 -84 9 -25 38 -30 57 -11 18 18 14 30
-7 19 -20 -11 -31 -5 -31 16 0 7 11 13 24 13 28 0 51 24 42 45 -7 18 -50 20
-64 2z m35 -24 c-9 -9 -19 -14 -23 -11 -10 10 6 28 24 28 15 0 15 -1 -1 -17z"/>
<path d="M275 804 c-30 -33 -34 -84 -7 -84 10 0 23 5 30 12 8 8 15 8 27 -2 13
-11 18 -11 28 0 9 10 9 13 0 17 -7 3 -13 17 -13 32 0 26 -16 51 -32 51 -5 0
-20 -12 -33 -26z m45 -11 c-1 -16 -39 -57 -46 -50 -10 10 17 57 33 57 7 0 13
-3 13 -7z"/>
<path d="M382 784 c-16 -60 -7 -72 30 -37 26 25 30 26 28 8 -4 -37 0 -39 30
-10 29 28 30 28 30 7 0 -23 25 -41 38 -27 4 4 1 10 -5 12 -7 3 -13 16 -13 29
0 25 -23 33 -36 12 -5 -7 -10 -4 -16 11 -8 22 -9 23 -34 6 -25 -16 -25 -16
-22 6 6 42 -18 29 -30 -17z"/>
<path d="M123 643 c-13 -2 -32 -16 -43 -30 -19 -24 -20 -40 -20 -230 0 -203 0
-204 25 -228 20 -20 34 -25 78 -25 90 0 115 39 117 178 l0 52 -55 0 c-54 0
-55 0 -55 -30 0 -23 4 -30 20 -30 17 0 20 -7 20 -50 0 -44 -3 -52 -25 -62 -21
-10 -29 -9 -43 6 -14 14 -18 41 -20 164 -4 178 4 226 38 230 33 5 50 -22 50
-80 0 -47 1 -48 30 -48 l30 0 0 64 c0 53 -4 70 -22 90 -23 26 -79 39 -125 29z"/>
<path d="M370 638 c0 -2 -14 -109 -30 -238 -16 -129 -30 -243 -30 -252 0 -14
8 -18 35 -18 33 0 35 2 35 34 0 18 3 48 6 65 6 30 9 32 43 29 l36 -3 5 -57 c3
-31 8 -59 12 -63 3 -3 19 -5 35 -3 l29 3 -31 250 -30 250 -57 3 c-32 2 -58 2
-58 0z m74 -165 c4 -60 10 -118 13 -130 5 -20 1 -23 -27 -23 l-32 0 6 103 c13
191 30 212 40 50z"/>
<path d="M590 385 l0 -255 30 0 29 0 3 92 c2 75 6 93 18 93 11 0 22 -28 39
-92 l24 -93 33 0 c41 0 41 1 9 109 l-25 85 22 23 c16 17 22 39 26 97 6 95 -3
142 -33 172 -21 21 -33 24 -100 24 l-75 0 0 -255z m128 183 c7 -7 12 -42 12
-88 0 -84 -9 -100 -52 -100 l-28 0 0 100 0 100 28 0 c15 0 33 -5 40 -12z"/>
<path d="M846 618 c-8 -31 -6 -320 3 -392 10 -76 32 -96 108 -96 44 0 58 5 78
25 l25 24 0 231 0 230 -35 0 -35 0 0 -218 c0 -219 -3 -242 -36 -242 -7 0 -20
7 -28 16 -14 13 -16 48 -16 230 l0 214 -29 0 c-21 0 -30 -6 -35 -22z"/>
<path d="M1120 385 l0 -257 81 4 c74 3 83 6 106 32 l24 28 -3 204 c-4 247 1
237 -123 243 l-85 3 0 -257z m143 150 c4 -22 7 -101 5 -176 -3 -146 -11 -169
-54 -169 l-24 0 0 196 0 195 32 -3 c29 -3 33 -7 41 -43z"/>
<path d="M1426 618 c-7 -32 -56 -449 -56 -470 0 -14 8 -18 35 -18 34 0 35 1
35 43 0 72 8 87 46 87 37 0 41 -8 46 -85 3 -37 5 -40 36 -43 40 -4 39 -20 7
251 -34 284 -25 257 -90 257 -49 0 -55 -2 -59 -22z m78 -153 c4 -64 9 -122 12
-130 5 -11 -2 -15 -28 -15 l-34 0 7 68 c5 37 8 92 8 123 1 53 6 69 21 69 4 0
10 -52 14 -115z"/>
</g>
</svg>
